<svg xmlns="http://www.w3.org/2000/svg" width="80" height="80" fill="none"><path fill="#A3BAE5" stroke="#000" stroke-linecap="round" stroke-linejoin="round" stroke-width=".402" d="M17.822 19.35a29.904 29.904 0 0 0-9.187 16.833 33.246 33.246 0 0 0 6.86 27.192c6.229 7.384 17.497 9.221 27.069 7.856 10.044-1.434 17.62-6.544 21.47-15.94a34.682 34.682 0 0 0-4.34-33.492A26.37 26.37 0 0 0 37.28 12a35.1 35.1 0 0 0-10.306 2.03 33.002 33.002 0 0 0-3.622 1.522 25.409 25.409 0 0 0-5.53 3.797z"/><path fill="#A3BAE5" d="M56.248 18.194 37.122 41.817 37.28 12"/><path stroke="#000" stroke-linecap="round" stroke-linejoin="round" stroke-width=".402" d="M56.248 18.194 37.122 41.817 37.28 12"/><path stroke="#1A1A1A" stroke-linecap="round" stroke-linejoin="round" stroke-width=".402" d="m37.577 18.894 9.222-5.39m-9.677 10.78 15.17-8.872m-15.17 14.226 19.126-11.443M37.122 34.083l11.916-6.965M37.122 38.335l5.18-3.027m9.642-3.465a.7.7 0 1 0 0-1.4.7.7 0 0 0 0 1.4zm-6.459 7.909a.7.7 0 1 0 0-1.4.7.7 0 0 0 0 1.4zm10.168-3.044a.7.7 0 1 0 0-1.4.7.7 0 0 0 0 1.4zm6.527-4.165a.7.7 0 1 0 0-1.4.7.7 0 0 0 0 1.4zM51.944 43.217a.7.7 0 1 0 0-1.4.7.7 0 0 0 0 1.4zm9.534 2.625a.7.7 0 1 0 0-1.4.7.7 0 0 0 0 1.4zm-6.876 5.108a.7.7 0 1 0 0-1.4.7.7 0 0 0 0 1.4zm-7.208-.35a.7.7 0 1 0 0-1.4.7.7 0 0 0 0 1.4zm12.686 3.85a.7.7 0 1 0 0-1.4.7.7 0 0 0 0 1.4zM17.385 34.082h2.274m-7.471-2.344h2.274m-1.294 8.364h2.275m-5.426 4.34h2.274m3.149 3.902h2.276m3.43-11.409h2.275m-4.357 6.054h2.274m6.405 0h2.293m-2.293-3.937h2.293m-8.61-19.196-1.225 2.118h2.45l-1.225-2.118zm12.442-3.971-2.397-.525.735 2.327 1.662-1.802zm-4.55 4.899-1.733 1.733 2.363.63-.63-2.363zm-.174 7.839-2.432-.105 1.12 2.17 1.312-2.065zm5.931 6.282-.63-2.362-1.733 1.732 2.363.63zm.735-8.312-2.345-.735.525 2.38 1.82-1.645z"/><path fill="#fff" stroke="#000" stroke-linecap="round" stroke-linejoin="round" stroke-width=".402" d="M52.678 10.862a10.832 10.832 0 0 0-3.273 5.95 11.827 11.827 0 0 0 2.45 9.711c2.222 2.625 6.247 3.29 9.66 2.8a9.1 9.1 0 0 0 7.61-5.617 12.41 12.41 0 0 0-1.556-11.951 10.149 10.149 0 0 0-11.62-2.782c-.441.155-.874.336-1.294.542a9.628 9.628 0 0 0-1.977 1.347z"/><path fill="#000" d="M61.375 14.45a6.316 6.316 0 0 0-3.29.315 1.626 1.626 0 0 0-.262 2.677c.239.186.522.306.822.35a3.5 3.5 0 0 1 1.172.402 4.464 4.464 0 0 1 1.54 1.05 2.381 2.381 0 0 1 .473 1.837c-.158.7-.98 1.015-1.593 1.155a3.621 3.621 0 0 1-1.61-.175c-.42-.122-1.242-.367-1.242-.91a.262.262 0 1 0-.525 0c0 1.015 1.365 1.383 2.153 1.54a3.114 3.114 0 0 0 3.114-1.05 2.712 2.712 0 0 0-.927-3.22 7.87 7.87 0 0 0-.823-.49 10.38 10.38 0 0 0-.98-.507c-.384-.14-.84 0-1.19-.315a.999.999 0 0 1-.524-.857c0-.84.84-1.225 1.54-1.312.7-.088 1.4 0 2.1 0a.262.262 0 1 0 0-.525l.052.035z"/><path fill="#000" d="M59.59 12.577v11.077a.262.262 0 0 0 .525 0V12.577a.263.263 0 0 0-.525 0z"/><path stroke="#000" stroke-linecap="round" stroke-linejoin="round" stroke-width=".402" d="m30.613 71.162 6.509-29.345-26.86 12.634"/><path stroke="#1A1A1A" stroke-linecap="round" stroke-linejoin="round" stroke-width=".402" d="M44.367 59.49a.7.7 0 1 0 0-1.4.7.7 0 0 0 0 1.4zm9.343-1.382a.7.7 0 1 0 0-1.4.7.7 0 0 0 0 1.4zm-4.671 6.316a.7.7 0 1 0 0-1.4.7.7 0 0 0 0 1.4zm-10.71-7.716a.7.7 0 1 0 0-1.4.7.7 0 0 0 0 1.4zm2.082-8.749a.7.7 0 1 0 0-1.4.7.7 0 0 0 0 1.4zM36.58 65.125a.7.7 0 1 0 0-1.4.7.7 0 0 0 0 1.4zm5.721 3.604a.7.7 0 1 0 0-1.4.7.7 0 0 0 0 1.4z"/><path stroke="#000" stroke-linecap="round" stroke-linejoin="round" stroke-width=".402" d="M37.121 41.816 13.954 23.653"/><path stroke="#1A1A1A" stroke-linecap="round" stroke-linejoin="round" stroke-width=".402" d="m33.587 43.48 2.17 4.479m-5.425-2.923 4.095 8.382m-7.524-6.666 6.282 12.843M23.09 48.344l8.87 16.78M18.976 50.408l10.918 20.63m-14.75-18.669 8.154 16.693"/></svg>