<svg xmlns="http://www.w3.org/2000/svg" width="81" height="80" fill="none"><path stroke="#000" stroke-linecap="round" stroke-linejoin="round" stroke-width=".52" d="M48.188 55.584a20.67 20.67 0 0 1 4.62 8.81 1.6 1.6 0 0 0 .167.475c.088.108.18.21.28.309.58.734.31.559 1 1.396-.484 1.451-1.55 2.566-2.768 3.492-2.279 1.733-5.037 2.433-7.869 2.861-2.503-4.983-4.656-7.556-8.717-9.387-1.871-.838-3.817-4.637-4.012-6.68"/><path fill="#fff" d="M22.886 24.274c.321 2.255.218 4.536.155 6.808-.246 8.655.07 17.314.948 25.938 11.878-.31 23.76-.443 35.647-.396.524-10.75.65-21.507.377-32.271"/><path stroke="#000" stroke-linecap="round" stroke-linejoin="round" stroke-width=".52" d="M22.886 24.274c.321 2.255.218 4.536.155 6.808-.246 8.655.07 17.314.948 25.938 11.878-.31 23.76-.443 35.647-.396.524-10.75.65-21.507.377-32.271"/><path fill="#fff" d="M22.886 21.04c.321 2.255.218 4.536.155 6.806a200.32 200.32 0 0 0 .948 25.94c11.878-.31 23.76-.443 35.647-.396.524-10.753.65-21.51.377-32.273"/><path stroke="#000" stroke-linecap="round" stroke-linejoin="round" stroke-width=".52" d="M22.886 21.04c.321 2.255.218 4.536.155 6.806a200.32 200.32 0 0 0 .948 25.94c11.878-.31 23.76-.443 35.647-.396.524-10.753.65-21.51.377-32.273"/><path fill="#fff" d="M23.025 16.935c-.245 8.654.086 24.993.963 33.615 11.878-.31 23.76-.441 35.647-.396.524-10.75.635-22.708.363-33.465"/><path stroke="#000" stroke-linecap="round" stroke-linejoin="round" stroke-width=".52" d="M23.025 16.935c-.245 8.654.086 24.993.963 33.615 11.878-.31 23.76-.441 35.647-.396.524-10.75.635-22.708.363-33.465"/><path stroke="#000" stroke-linecap="round" stroke-linejoin="round" stroke-width=".52" d="M55.8 19.27c.104 9.646-.58 17.749-1.251 27.378a305.56 305.56 0 0 1-26.162.15c-1.12-9.61-1.896-18.3-1.504-27.952"/><path stroke="#000" stroke-linecap="round" stroke-linejoin="round" stroke-width=".52" d="M32.705 17.669c-1.031 3.751.716 7.967 4.27 10.296a7.83 7.83 0 0 0 2.793 1.197 7.852 7.852 0 0 0 3.072-.078c1.618-.356 3.1-1.074 4.296-2.082 1.196-1.008 2.065-2.27 2.52-3.66.58-1.865.372-3.846-.013-5.752"/><path fill="#000" d="M50.664 40.468c-.86 1.355-1.21 2.971-1.357 4.569a24.923 24.923 0 0 0 4.801-.387.602.602 0 0 0 .245-.084.643.643 0 0 0 .189-.524c.044-1.107.835-5.093-.108-5.818-1.271-.98-3.084 1.555-3.77 2.244Zm-18.339.409c.86 1.355 1.21 2.972 1.357 4.569a24.842 24.842 0 0 1-4.801-.387.604.604 0 0 1-.245-.083.653.653 0 0 1-.189-.525c-.044-1.107-.835-5.093.11-5.818 1.27-.98 3.082 1.556 3.768 2.244Z"/><path fill="#fff" d="M46.245 60.771c-.478-1.152-1.28-2.149-2.128-3.048-1.257-1.324-2.673-2.53-3.592-4.103-.92-1.574-1.278-3.397-1.724-5.146-.342-1.348-.751-3.9-2.286-4.367-.313-.095-.683-.1-.937.106-.254.205-.328.599-.328.944 0 .92-.23 1.815-.28 2.747a69.638 69.638 0 0 0-.07 3.282c0 2.143.05 4.287.012 6.424"/><path stroke="#000" stroke-linecap="round" stroke-linejoin="round" stroke-width=".52" d="M46.245 60.771c-.478-1.152-1.28-2.149-2.128-3.048-1.257-1.324-2.673-2.53-3.592-4.103-.92-1.574-1.278-3.397-1.724-5.146-.342-1.348-.751-3.9-2.286-4.367-.313-.095-.683-.1-.937.106-.254.205-.328.599-.328.944 0 .92-.23 1.815-.28 2.747a69.638 69.638 0 0 0-.07 3.282c0 2.143.05 4.287.012 6.424m3.228-38.564a2.634 2.634 0 0 0-.804.712c-.209.283-.347.6-.406.931-.002.65.258 1.28.735 1.782.49.569 1.374.905 2.148.683.735-.212 1.193-.83 1.47-1.454.277-.623.41-1.293.786-1.872.378-.578 1.098-1.06 1.857-.966.618.08 1.093.526 1.392 1 .735 1.16.245 2.251-.556 3.373m.903-2.455 2.47-.09m-11.459.268-1.774.124"/><path fill="#9EBBEF" d="M59.52 29.34c-.206 5.672-.014 11.346.015 17.018 0 1.433 0 2.863-.017 4.296 0 .797.392 2.938-.275 3.567-.886.835-3.522.132-4.674.14-2.494.015-5.03.312-7.516.466-1.96.225-4.054.013-5.97.407A480.097 480.097 0 0 0 39.4 49.71c-.407-1.308-.825-2.63-1.57-3.815-.595-.952-1.428-1.834-2.555-2.304a.558.558 0 0 0-.465-.032.429.429 0 0 0-.121.15.373.373 0 0 0-.036.18 53.504 53.504 0 0 0-.167 10.12c.037.444.07.917-.17 1.313-.815 1.357-3.647.6-5.06.723-1.414.123-4.177.424-4.756-1.138-.86-2.332-.34-5.384-.49-7.802a287.749 287.749 0 0 1-.365-8.571 200 200 0 0 1 .037-12.363c.038-1.027.084-2.057.137-3.088.047-.848.272-1.808.018-2.637-.226-.74-.468-1.371-.537-2.155-.024-.295-.245-2.755.05-2.836 1.41-.394 2.939-.242 4.409-.134 5.94.424 11.916.056 17.883-.019 4.792-.061 9.584.07 14.373.212a43.99 43.99 0 0 1-.017 6.916c-.196 2.287-.387 4.602-.478 6.912Z" style="mix-blend-mode:multiply"/><path stroke="#000" stroke-linecap="round" stroke-linejoin="round" stroke-width=".52" d="M61.712 16.111c-14.588-.115-26.482.349-41.07.232"/><path stroke="#000" stroke-linecap="round" stroke-linejoin="round" stroke-width=".52" d="M24.95 20.066a12.444 12.444 0 0 1-4.3-.066 39.38 39.38 0 0 1 .374-6.303c14.12-1.908 25.724-.18 41.336-.888.374 2.499.238 4.146.363 6.54a.607.607 0 0 1-.09.424.706.706 0 0 1-.536.155l-4.61.028"/></svg>