<svg xmlns="http://www.w3.org/2000/svg" width="80" height="80" fill="none"><path fill="#A3BAE5" d="M54.107 31.194a31.125 31.125 0 0 1 6.669-6.19 47.377 47.377 0 0 0 .479 6.976c.018.386.116.765.287 1.111.328.48.76.88 1.265 1.17a7.99 7.99 0 0 1 2.549 3.084c.148.407.37.784.651 1.112.729.709 1.917.46 2.894.69a3.393 3.393 0 0 1 2.798 2.338c.326 1.13.977 9.428.172 11.248a5.94 5.94 0 0 1-3.296 2.645c-1.916.996-2.184 2.28-3.68 3.718a21.27 21.27 0 0 1-9.868 4.311 2.3 2.3 0 0 0-1.188.441c-.633.575.306 5.423-.882 5.634a27.567 27.567 0 0 1-6.764 0c-1.227-.345-.805-1.629-.767-2.894 0-.44 0-3.334-1.13-3.334-4.255 0-2.932.288-7.263.288-1.916 0-.92 4.1-1.533 5.537-.613 1.438-7.934 1.361-8.221 0-.288-1.36.326-4.944-1.054-5.059a14.621 14.621 0 0 1-8.796-5.423c-1.916-2.51-2.51-11.497-1.916-14.66a17.59 17.59 0 0 1 4.1-8.489 15.505 15.505 0 0 1 6.497-4.311c4.541-1.38 18.416-.767 20.485-.748.767.077 7.512.805 7.512.805z"/><path stroke="#1A1A1A" stroke-linecap="round" stroke-miterlimit="10" stroke-width=".444" d="M54.279 31.194a31.62 31.62 0 0 1 6.136-5.815.34.34 0 0 1 .536.276c.025 2.116.184 4.228.476 6.325.018.386.116.764.287 1.111.327.48.76.88 1.265 1.17a7.99 7.99 0 0 1 2.53 3.084c.156.403.376.779.65 1.112.73.709 1.917.498 2.894.69a3.528 3.528 0 0 1 2.97 3.468c.097 3.603.71 8.087 0 10.118-.708 2.032-2.51 2.28-3.276 2.645-1.802.996-2.185 2.28-3.68 3.717a21.272 21.272 0 0 1-9.868 4.312 2.3 2.3 0 0 0-1.189.44c-.632.576.326 5.424-.881 5.635a27.568 27.568 0 0 1-6.765 0c-1.226-.345-.804-1.63-.747-2.894 0-.44 0-3.334-1.15-3.334-4.254 0-2.932.287-7.243.287-1.917 0-.94 4.101-1.552 5.538-.614 1.438-7.915 1.36-8.221 0-.307-1.36.325-4.944-1.035-5.059a14.564 14.564 0 0 1-8.815-5.346c-1.917-2.51-2.491-11.479-1.917-14.66a17.743 17.743 0 0 1 4.101-8.566 15.504 15.504 0 0 1 6.497-4.312c4.56-1.38 18.434-.766 20.504-.747.767.077 7.493.805 7.493.805z"/><path stroke="#1A1A1A" stroke-miterlimit="10" stroke-width=".444" d="M58.572 39.012a1.915 1.915 0 0 0-.23 1.725 1.379 1.379 0 0 0 1.13 1.035 1.495 1.495 0 0 0 1.61-1.61 1.647 1.647 0 0 0-1.916-1.61.96.96 0 0 0-.594.46zm10.501.135a4.407 4.407 0 0 0-1.648 2.644 46.49 46.49 0 0 0 0 10.827c.651 1.763 1.916 2.357 2.3 2.338"/><path fill="#1A1A1A" d="M18.595 50.474a.444.444 0 1 0-.427-.778l.427.778zm-3.28.339.016-.443h-.002l-.014.443zm-2.778-1.399-.356.266.008.01.348-.276zm-.135-2.99.378.233.009-.014.007-.014-.394-.204zm.997-.555-.033.443h.033v-.443zm.786 1.111-.439.07.006.039.013.036.42-.145zm0 1.035.375.237.027-.043.017-.05-.42-.144zm-1.15.556-.063.44.015.001.048-.441zm-1.227-.498.262-.36-.014-.009-.248.369zm-2.414-3.545-.435.087.001.008.434-.095zm1.178-4.014a.444.444 0 0 0-.746-.481l.746.481zm7.596 9.182a5.496 5.496 0 0 1-2.837.674l-.031.887a6.386 6.386 0 0 0 3.295-.783l-.427-.778zm-2.838.674a3.255 3.255 0 0 1-1.359-.346l-.399.792a4.133 4.133 0 0 0 1.729.44l.028-.886zm-1.359-.346a3.254 3.254 0 0 1-1.087-.885l-.695.55a4.14 4.14 0 0 0 1.383 1.127l.4-.792zm-1.079-.875a2.219 2.219 0 0 1-.439-1.229l-.886.04c.028.622.242 1.22.614 1.72l.711-.531zm-.439-1.229a2.22 2.22 0 0 1 .327-1.263l-.755-.465a3.107 3.107 0 0 0-.458 1.768l.886-.04zm.343-1.291a.59.59 0 0 1 .237-.244l-.432-.776c-.253.142-.46.354-.593.612l.788.408zm.237-.244a.59.59 0 0 1 .333-.073l.066-.885a1.478 1.478 0 0 0-.831.182l.432.776zm.366-.072c.01 0 .069-.001.16.155.09.153.154.372.187.583l.877-.14a2.649 2.649 0 0 0-.297-.89c-.163-.279-.459-.596-.927-.596v.888zm.366.812c.083.242.083.504 0 .746l.84.289a2.034 2.034 0 0 0 0-1.324l-.84.289zm.044.653a.763.763 0 0 1-.313.28l.386.8a1.66 1.66 0 0 0 .678-.606l-.75-.474zm-.313.28a.764.764 0 0 1-.414.072l-.095.882c.307.033.617-.02.895-.155l-.386-.799zm-.398.074a2.297 2.297 0 0 1-1.028-.418l-.523.717c.42.307.91.506 1.425.58l.126-.88zm-1.043-.428a5.305 5.305 0 0 1-2.228-3.271l-.867.19a6.193 6.193 0 0 0 2.601 3.819l.495-.738zM9.83 44.44a5.305 5.305 0 0 1 .743-3.926l-.746-.481a6.193 6.193 0 0 0-.867 4.582l.87-.175zm58.63 2.149a.842.842 0 0 0 0 .709.556.556 0 0 0 .46.421.613.613 0 0 0 .651-.67.67.67 0 0 0-.747-.652.344.344 0 0 0-.364.192zm1.993.096a.845.845 0 0 0 0 .709.557.557 0 0 0 .46.421.61.61 0 0 0 .651-.67.67.67 0 0 0-.747-.652.346.346 0 0 0-.364.192z"/><path fill="#fff" stroke="#1A1A1A" stroke-linecap="round" stroke-miterlimit="10" stroke-width=".444" d="M43.3 35.156a.357.357 0 0 0-.265-.418 15.904 15.904 0 0 0-8.203.403.335.335 0 0 0-.232.322c.002.222.01.438.038.659.023.181.199.296.379.265a27.794 27.794 0 0 1 7.813-.222.371.371 0 0 0 .404-.365c.007-.216.029-.431.067-.644z"/><path stroke="#1A1A1A" stroke-linecap="round" stroke-miterlimit="10" stroke-width=".444" d="M27.336 67.565a21.95 21.95 0 0 0 4.35.307 12.68 12.68 0 0 0 3.986-.364m10.118.038a30.44 30.44 0 0 0 7.819 0"/><path fill="#fff" stroke="#1A1A1A" stroke-miterlimit="10" stroke-width=".444" d="M33.43 8.867a14.105 14.105 0 0 0-1.61 12.188 9.83 9.83 0 0 0 7.914 7.243c6.42.94 11.23-4.848 11.23-11.344 0-6.497-6.688-12.667-13.012-11.249a6.898 6.898 0 0 0-4.522 3.162z"/><path stroke="#1A1A1A" stroke-linecap="round" stroke-miterlimit="10" stroke-width=".444" d="M41.88 13.486a6.918 6.918 0 0 0-1.667 0 2.03 2.03 0 0 0-1.398.804 1.207 1.207 0 0 0 .134 1.533c.207.16.45.265.709.307 1.015.23 2.203.115 3.008.805.369.351.622.805.729 1.303a1.92 1.92 0 0 1-.23 1.648 2.316 2.316 0 0 1-1.687.67 7.147 7.147 0 0 1-2.702-.344m2.185-8.509v10.444"/></svg>