<svg xmlns="http://www.w3.org/2000/svg" width="56" height="56" fill="none"><path fill="#A3BAE5" d="M37.875 21.836a21.79 21.79 0 0 1 4.668-4.333 33.167 33.167 0 0 0 .336 4.883c.013.27.081.535.2.778.23.336.533.616.886.818a5.593 5.593 0 0 1 1.784 2.16c.104.285.259.548.456.778.51.496 1.342.322 2.026.483a2.375 2.375 0 0 1 1.958 1.636c.228.792.684 6.6.121 7.874a4.158 4.158 0 0 1-2.307 1.852c-1.342.697-1.53 1.596-2.576 2.602a14.888 14.888 0 0 1-6.908 3.018c-.3.023-.589.13-.832.309-.442.402.215 3.796-.617 3.944a19.295 19.295 0 0 1-4.735 0c-.858-.242-.563-1.14-.536-2.026 0-.309 0-2.334-.792-2.334-2.978 0-2.052.201-5.084.201-1.341 0-.644 2.87-1.073 3.877-.43 1.006-5.553.952-5.755 0-.2-.953.229-3.461-.737-3.542a10.235 10.235 0 0 1-6.158-3.796c-1.34-1.757-1.757-8.048-1.34-10.262a12.314 12.314 0 0 1 2.87-5.942 10.853 10.853 0 0 1 4.547-3.018c3.18-.966 12.891-.537 14.34-.523.536.053 5.258.563 5.258.563z"/><path stroke="#1A1A1A" stroke-linecap="round" stroke-miterlimit="10" stroke-width=".444" d="M37.995 21.836a22.133 22.133 0 0 1 4.296-4.07.237.237 0 0 1 .375.193c.017 1.48.128 2.96.333 4.427.012.27.081.535.2.778.23.336.533.616.886.818a5.595 5.595 0 0 1 1.77 2.16c.11.282.264.544.457.778.51.496 1.341.348 2.025.482a2.469 2.469 0 0 1 2.08 2.428c.067 2.522.496 5.661 0 7.083-.497 1.422-1.758 1.596-2.294 1.851-1.261.698-1.53 1.597-2.576 2.603a14.89 14.89 0 0 1-6.908 3.018c-.3.023-.589.13-.832.308-.443.403.228 3.797-.617 3.944a19.296 19.296 0 0 1-4.735 0c-.858-.241-.563-1.14-.523-2.025 0-.309 0-2.334-.805-2.334-2.978 0-2.052.2-5.07.2-1.342 0-.658 2.871-1.087 3.877-.43 1.007-5.54.953-5.755 0-.214-.952.228-3.46-.724-3.54a10.195 10.195 0 0 1-6.17-3.743c-1.342-1.758-1.745-8.036-1.342-10.262a12.42 12.42 0 0 1 2.87-5.996 10.852 10.852 0 0 1 4.548-3.019c3.193-.965 12.904-.536 14.353-.523.537.054 5.245.564 5.245.564z"/><path stroke="#1A1A1A" stroke-miterlimit="10" stroke-width=".444" d="M41 27.308a1.341 1.341 0 0 0-.16 1.208.966.966 0 0 0 .79.724 1.048 1.048 0 0 0 1.128-1.127 1.153 1.153 0 0 0-1.342-1.127.671.671 0 0 0-.416.322zm7.351.095a3.085 3.085 0 0 0-1.154 1.85 32.542 32.542 0 0 0 0 7.58c.457 1.234 1.342 1.65 1.61 1.636"/><path fill="#1A1A1A" d="M13.016 35.332a.31.31 0 1 0-.298-.545l.298.545zm-2.295.237.01-.31-.01.31zm-1.945-.98-.25.187.006.007.244-.193zm-.094-2.092.264.163.006-.01.006-.01-.276-.143zm.697-.389-.023.31h.023v-.31zm.55.778-.306.05.004.026.008.025.294-.1zm0 .725.263.166.02-.031.011-.034-.294-.101zM9.124 34l-.044.307.011.002.033-.31zm-.858-.35.183-.25-.01-.007-.173.258zm-1.69-2.48-.305.06.001.006.304-.067zm.824-2.81a.31.31 0 0 0-.522-.337l.522.337zm5.318 6.427a3.848 3.848 0 0 1-1.986.472l-.022.62a4.47 4.47 0 0 0 2.306-.547l-.298-.545zm-1.987.472a2.277 2.277 0 0 1-.951-.243l-.28.555a2.9 2.9 0 0 0 1.21.309l.02-.621zm-.951-.243a2.277 2.277 0 0 1-.76-.62l-.488.387c.262.33.592.599.969.788l.279-.555zm-.755-.612a1.553 1.553 0 0 1-.308-.86l-.62.028c.02.435.169.854.43 1.204l.498-.372zm-.308-.86a1.55 1.55 0 0 1 .23-.884l-.53-.326c-.228.371-.34.803-.32 1.238l.62-.028zm.24-.904a.413.413 0 0 1 .166-.17l-.302-.543a1.035 1.035 0 0 0-.415.427l.552.286zm.166-.17a.413.413 0 0 1 .233-.052l.047-.62a1.035 1.035 0 0 0-.582.129l.302.542zm.256-.051c.008 0 .049 0 .112.109.063.107.108.26.132.407l.613-.098a1.856 1.856 0 0 0-.208-.622c-.114-.196-.32-.418-.649-.418v.622zm.257.568a.803.803 0 0 1 0 .523l.587.202a1.43 1.43 0 0 0 0-.927l-.588.202zm.03.458a.535.535 0 0 1-.219.196l.27.559c.195-.094.36-.24.475-.424l-.525-.331zm-.219.196a.535.535 0 0 1-.29.05l-.066.617c.215.023.432-.014.627-.108l-.27-.56zm-.279.051a1.609 1.609 0 0 1-.72-.292l-.365.502c.294.215.637.354.997.405l.088-.615zm-.73-.3a3.714 3.714 0 0 1-1.559-2.29l-.607.134a4.335 4.335 0 0 0 1.82 2.673l.347-.516zM6.88 31.109a3.713 3.713 0 0 1 .52-2.748l-.522-.337c-.613.95-.83 2.1-.607 3.208l.61-.123zm41.042 1.503a.59.59 0 0 0 0 .497.389.389 0 0 0 .322.295.43.43 0 0 0 .456-.47.47.47 0 0 0-.523-.456.24.24 0 0 0-.255.134zm1.395.068a.59.59 0 0 0 0 .495.39.39 0 0 0 .322.296.43.43 0 0 0 .456-.47.469.469 0 0 0-.523-.456.24.24 0 0 0-.255.134z"/><path fill="#fff" stroke="#1A1A1A" stroke-linecap="round" stroke-miterlimit="10" stroke-width=".444" d="M30.31 24.61a.25.25 0 0 0-.185-.293 11.134 11.134 0 0 0-5.743.282.234.234 0 0 0-.162.225c.001.156.006.307.026.461.017.128.14.208.266.186a19.458 19.458 0 0 1 5.47-.156.26.26 0 0 0 .282-.255c.005-.15.02-.302.047-.45z"/><path stroke="#1A1A1A" stroke-linecap="round" stroke-miterlimit="10" stroke-width=".444" d="M19.135 47.296a15.36 15.36 0 0 0 3.045.214 8.854 8.854 0 0 0 2.79-.255m7.083.027c1.817.236 3.657.236 5.473 0"/><path fill="#fff" stroke="#1A1A1A" stroke-miterlimit="10" stroke-width=".444" d="M23.4 6.207a9.873 9.873 0 0 0-1.126 8.531 6.882 6.882 0 0 0 5.54 5.071c4.494.657 7.86-3.394 7.86-7.941 0-4.548-4.68-8.867-9.107-7.874A4.829 4.829 0 0 0 23.4 6.207z"/><path stroke="#1A1A1A" stroke-linecap="round" stroke-miterlimit="10" stroke-width=".444" d="M29.316 9.44a4.842 4.842 0 0 0-1.167 0 1.421 1.421 0 0 0-.979.563.845.845 0 0 0 .094 1.073 1.1 1.1 0 0 0 .496.215c.711.161 1.543.08 2.106.563.258.246.436.564.51.913a1.343 1.343 0 0 1-.161 1.153 1.622 1.622 0 0 1-1.18.47 5.003 5.003 0 0 1-1.892-.242m1.53-5.956v7.31"/></svg>