<svg xmlns="http://www.w3.org/2000/svg" width="57" height="56" fill="none"><path stroke="#000" stroke-linecap="round" stroke-linejoin="round" stroke-width=".52" d="M33.881 38.909a14.468 14.468 0 0 1 3.235 6.167c.021.116.06.228.116.333.062.075.127.147.196.216.407.514.217.39.7.977-.339 1.016-1.084 1.796-1.937 2.444-1.595 1.213-3.526 1.703-5.508 2.003-1.752-3.488-3.26-5.29-6.102-6.571-1.31-.587-2.672-3.246-2.809-4.676"/><path fill="#fff" d="M16.17 16.992c.225 1.579.153 3.175.108 4.766-.171 6.058.05 12.12.664 18.156 8.315-.217 16.633-.31 24.953-.277a304.94 304.94 0 0 0 .264-22.59"/><path stroke="#000" stroke-linecap="round" stroke-linejoin="round" stroke-width=".52" d="M16.17 16.992c.225 1.579.153 3.175.108 4.766-.171 6.058.05 12.12.664 18.156 8.315-.217 16.633-.31 24.953-.277a304.94 304.94 0 0 0 .264-22.59"/><path fill="#fff" d="M16.17 14.728c.225 1.579.153 3.175.108 4.764-.171 6.059.05 12.12.664 18.158 8.315-.218 16.633-.31 24.953-.277a305 305 0 0 0 .264-22.591"/><path stroke="#000" stroke-linecap="round" stroke-linejoin="round" stroke-width=".52" d="M16.17 14.728c.225 1.579.153 3.175.108 4.764-.171 6.059.05 12.12.664 18.158 8.315-.218 16.633-.31 24.953-.277a305 305 0 0 0 .264-22.591"/><path fill="#fff" d="M16.268 11.855c-.172 6.057.06 17.495.674 23.53a836.875 836.875 0 0 1 24.953-.277c.367-7.525.444-15.896.253-23.425"/><path stroke="#000" stroke-linecap="round" stroke-linejoin="round" stroke-width=".52" d="M16.268 11.855c-.172 6.057.06 17.495.674 23.53a836.875 836.875 0 0 1 24.953-.277c.367-7.525.444-15.896.253-23.425"/><path stroke="#000" stroke-linecap="round" stroke-linejoin="round" stroke-width=".52" d="M39.21 13.49c.072 6.751-.406 12.423-.876 19.163-6.096.297-12.212.333-18.313.105-.784-6.726-1.327-12.81-1.053-19.566"/><path stroke="#000" stroke-linecap="round" stroke-linejoin="round" stroke-width=".52" d="M23.044 12.368c-.723 2.626.5 5.577 2.988 7.207a5.483 5.483 0 0 0 1.955.839 5.495 5.495 0 0 0 2.15-.055 7.002 7.002 0 0 0 3.008-1.458c.837-.705 1.445-1.588 1.764-2.561.406-1.306.26-2.693-.009-4.027"/><path fill="#000" d="M35.615 28.328c-.602.948-.847 2.08-.95 3.198a17.396 17.396 0 0 0 3.361-.271.423.423 0 0 0 .172-.058.453.453 0 0 0 .132-.367c.03-.776.584-3.566-.076-4.073-.89-.686-2.159 1.089-2.639 1.57zm-12.837.286c.602.948.847 2.08.95 3.198a17.395 17.395 0 0 1-3.361-.27.422.422 0 0 1-.172-.06.457.457 0 0 1-.132-.366c-.03-.775-.585-3.565.077-4.073.889-.686 2.158 1.09 2.638 1.57z"/><path fill="#fff" d="M32.521 42.54c-.334-.807-.895-1.505-1.49-2.134-.88-.927-1.87-1.77-2.514-2.872-.643-1.102-.894-2.378-1.206-3.603-.24-.943-.526-2.729-1.6-3.056-.22-.067-.478-.07-.656.074-.178.144-.23.42-.23.66 0 .645-.161 1.272-.196 1.924a48.772 48.772 0 0 0-.05 2.297c0 1.5.036 3.001.01 4.497"/><path stroke="#000" stroke-linecap="round" stroke-linejoin="round" stroke-width=".52" d="M32.521 42.54c-.334-.807-.895-1.505-1.49-2.134-.88-.927-1.87-1.77-2.514-2.872-.643-1.102-.894-2.378-1.206-3.603-.24-.943-.526-2.729-1.6-3.056-.22-.067-.478-.07-.656.074-.178.144-.23.42-.23.66 0 .645-.161 1.272-.196 1.924a48.772 48.772 0 0 0-.05 2.297c0 1.5.036 3.001.01 4.497m2.259-26.995c-.225.13-.417.3-.563.498-.146.198-.242.42-.284.652-.001.455.18.896.514 1.248.343.397.962.633 1.504.478.515-.149.836-.582 1.03-1.018.193-.436.286-.905.55-1.31.264-.405.768-.742 1.3-.677.432.057.764.368.974.7.514.812.171 1.576-.39 2.361m.633-1.718 1.728-.063m-8.021.187-1.242.087"/><path fill="#9EBBEF" d="M41.815 20.538c-.145 3.97-.01 7.942.01 11.913 0 1.002 0 2.004-.012 3.007 0 .558.274 2.056-.192 2.497-.621.584-2.466.092-3.272.098-1.746.01-3.52.218-5.261.326-1.372.157-2.838.01-4.18.285a336.447 336.447 0 0 0-1.178-3.868c-.284-.915-.578-1.84-1.099-2.67-.417-.666-1-1.284-1.788-1.613a.38.38 0 0 0-.326-.022.3.3 0 0 0-.085.105.26.26 0 0 0-.025.126 37.46 37.46 0 0 0-.117 7.083c.026.312.05.642-.118.92-.571.95-2.553.42-3.543.506-.99.086-2.924.297-3.328-.797-.602-1.632-.239-3.768-.343-5.461-.114-2-.203-4.006-.256-6a140.05 140.05 0 0 1 .026-8.654c.026-.719.058-1.44.096-2.162.032-.593.19-1.265.012-1.845-.158-.518-.328-.96-.376-1.51-.017-.205-.171-1.928.035-1.984.987-.276 2.057-.17 3.086-.094 4.159.297 8.341.039 12.519-.013 3.354-.043 6.708.049 10.06.148.124 1.612.12 3.23-.011 4.841-.137 1.601-.271 3.221-.334 4.838z"/><path stroke="#000" stroke-linecap="round" stroke-linejoin="round" stroke-width=".52" d="M43.349 11.278c-10.212-.08-18.538.244-28.75.162m3.016 2.606a8.71 8.71 0 0 1-3.01-.046 27.505 27.505 0 0 1 .262-4.412c9.883-1.335 18.006-.126 28.935-.622.262 1.75.166 2.902.254 4.579a.426.426 0 0 1-.063.296.494.494 0 0 1-.375.109l-3.227.019"/></svg>