<svg xmlns="http://www.w3.org/2000/svg" width="56" height="56" fill="none"><path fill="#A3BAE5" stroke="#000" stroke-linecap="round" stroke-linejoin="round" stroke-width=".402" d="M12.475 13.544a20.932 20.932 0 0 0-6.43 11.784 23.272 23.272 0 0 0 4.801 19.034c4.36 5.17 12.249 6.455 18.949 5.5 7.03-1.005 12.334-4.581 15.03-11.159a24.278 24.278 0 0 0-3.039-23.444A18.459 18.459 0 0 0 26.096 8.4a24.594 24.594 0 0 0-7.215 1.42c-.865.305-1.712.661-2.535 1.066a17.783 17.783 0 0 0-3.87 2.659z"/><path fill="#A3BAE5" d="M39.373 12.736 25.985 29.272l.11-20.872"/><path stroke="#000" stroke-linecap="round" stroke-linejoin="round" stroke-width=".402" d="M39.373 12.736 25.985 29.272l.11-20.872"/><path stroke="#1A1A1A" stroke-linecap="round" stroke-linejoin="round" stroke-width=".402" d="m26.304 13.226 6.455-3.773m-6.774 7.546 10.62-6.21m-10.62 9.958 13.388-8.01M25.985 23.858l8.342-4.875m-8.342 7.851 3.626-2.119m6.75-2.425a.49.49 0 1 0 0-.98.49.49 0 0 0 0 .98zm-4.521 5.536a.49.49 0 1 0 0-.98.49.49 0 0 0 0 .98zm7.117-2.131a.49.49 0 1 0 0-.98.49.49 0 0 0 0 .98zm4.569-2.915a.49.49 0 1 0 0-.98.49.49 0 0 0 0 .98zm-7.165 7.472a.49.49 0 1 0 0-.98.49.49 0 0 0 0 .98zm6.674 1.838a.49.49 0 1 0 0-.981.49.49 0 0 0 0 .98zm-4.814 3.576a.49.49 0 1 0 0-.98.49.49 0 0 0 0 .98zm-5.046-.246a.49.49 0 1 0 0-.98.49.49 0 0 0 0 .98zm8.88 2.695a.49.49 0 1 0 0-.98.49.49 0 0 0 0 .98zM12.17 23.857h1.592m-5.231-1.641h1.593m-.907 5.856h1.593M7.012 31.11h1.592m2.205 2.73H12.4m2.402-7.985h1.593m-3.05 4.237h1.592m4.483 0h1.605m-1.605-2.755h1.605M14.998 13.9l-.857 1.482h1.714l-.857-1.482zm8.709-2.78-1.678-.368.515 1.629 1.163-1.262zm-3.184 3.43-1.213 1.212 1.654.44-.441-1.653zm-.123 5.486-1.702-.073.784 1.518.919-1.445zm4.153 4.398-.441-1.654-1.213 1.213 1.654.44zm.514-5.819-1.641-.514.367 1.665 1.274-1.151z"/><path fill="#fff" stroke="#000" stroke-linecap="round" stroke-linejoin="round" stroke-width=".402" d="M36.874 7.604a7.582 7.582 0 0 0-2.29 4.164 8.277 8.277 0 0 0 1.714 6.798c1.556 1.838 4.373 2.303 6.762 1.96a6.37 6.37 0 0 0 5.328-3.932 8.686 8.686 0 0 0-1.09-8.366 7.105 7.105 0 0 0-8.133-1.947c-.31.108-.612.235-.907.38a6.739 6.739 0 0 0-1.384.943z"/><path fill="#000" d="M42.962 10.115a4.421 4.421 0 0 0-2.302.22 1.138 1.138 0 0 0-.184 1.874c.167.13.366.215.576.245.288.044.566.14.82.282.407.166.775.417 1.078.735a1.667 1.667 0 0 1 .33 1.286c-.11.49-.685.71-1.114.808-.38.045-.765.003-1.127-.122-.294-.086-.87-.257-.87-.637a.184.184 0 1 0-.367 0c0 .71.956.968 1.507 1.078a2.18 2.18 0 0 0 2.18-.735 1.898 1.898 0 0 0-.649-2.254 5.508 5.508 0 0 0-.576-.343 7.249 7.249 0 0 0-.686-.355c-.27-.098-.588 0-.833-.22a.7.7 0 0 1-.367-.6c0-.589.588-.858 1.078-.92.49-.06.98 0 1.47 0a.183.183 0 1 0 0-.367l.036.025z"/><path fill="#000" d="M41.713 8.804v7.754a.184.184 0 0 0 .368 0V8.804a.184.184 0 0 0-.368 0z"/><path stroke="#000" stroke-linecap="round" stroke-linejoin="round" stroke-width=".402" d="m21.429 49.813 4.556-20.541-18.801 8.843"/><path stroke="#1A1A1A" stroke-linecap="round" stroke-linejoin="round" stroke-width=".402" d="M31.057 41.643a.49.49 0 1 0 0-.98.49.49 0 0 0 0 .98zm6.54-.968a.49.49 0 1 0 0-.98.49.49 0 0 0 0 .98zm-3.27 4.422a.49.49 0 1 0 0-.98.49.49 0 0 0 0 .98zm-7.497-5.401a.49.49 0 1 0 0-.98.49.49 0 0 0 0 .98zm1.458-6.125a.49.49 0 1 0 0-.98.49.49 0 0 0 0 .98zm-2.682 12.016a.49.49 0 1 0 0-.98.49.49 0 0 0 0 .98zm4.005 2.523a.49.49 0 1 0 0-.98.49.49 0 0 0 0 .98z"/><path stroke="#000" stroke-linecap="round" stroke-linejoin="round" stroke-width=".402" d="M25.985 29.271 9.768 16.557"/><path stroke="#1A1A1A" stroke-linecap="round" stroke-linejoin="round" stroke-width=".402" d="m23.511 30.436 1.52 3.135m-3.798-2.046 2.866 5.868m-5.267-4.667 4.398 8.99m-7.067-7.876 6.21 11.747m-9.09-10.301 7.643 14.44M10.601 36.658l5.708 11.685"/></svg>