<?xml version="1.0" encoding="utf-8"?>
<!-- Generator: Adobe Illustrator 20.1.0, SVG Export Plug-In . SVG Version: 6.00 Build 0)  -->
<svg version="1.1" id="Layer_1" xmlns="http://www.w3.org/2000/svg" xmlns:xlink="http://www.w3.org/1999/xlink" x="0px" y="0px"
	 viewBox="0 0 81 73" style="enable-background:new 0 0 81 73;" xml:space="preserve">
<style type="text/css">
	.st0{filter:url(#Adobe_OpacityMaskFilter);}
	.st1{fill:#FFFFFF;}
	.st2{mask:url(#mask-2);fill:#A5ADB5;}
	.st3{filter:url(#Adobe_OpacityMaskFilter_1_);}
	.st4{mask:url(#mask-4);fill:#A5ADB5;}
	.st5{fill:#697684;}
	.st6{fill:#A5ADB5;}
</style>
<title>placeholder/noImage</title>
<desc>Created with Sketch.</desc>
<g id="Page-1">
	<g id="placeholder_x2F_noImage">
		<g id="Group" transform="translate(117.500000, 59.000000)">
			<g id="A5ADB5-_x2B_-697684" transform="translate(22.156000, 0.973154)">
				<g id="Group-10" transform="translate(0.000000, 32.747919)">
					<g id="Clip-9">
					</g>
					<defs>
						<filter id="Adobe_OpacityMaskFilter" filterUnits="userSpaceOnUse" x="-138.7" y="-59.1" width="42.9" height="33.4">
							<feColorMatrix  type="matrix" values="1 0 0 0 0  0 1 0 0 0  0 0 1 0 0  0 0 0 1 0"/>
						</filter>
					</defs>
					<mask maskUnits="userSpaceOnUse" x="-138.7" y="-59.1" width="42.9" height="33.4" id="mask-2">
						<g class="st0">
							<polygon id="path-1" class="st1" points="-138.7,-59.1 -95.8,-59.1 -95.8,-25.7 -138.7,-25.7 							"/>
						</g>
					</mask>
					<path id="Fill-8" class="st2" d="M-120.6-56.8c0-0.1,0.1-0.1,0.1-0.1h15.6c0.1,0,0.1,0.1,0.1,0.1V-32h-15.8V-56.8z M-95.8-27.8
						h-39.8c-0.6,0-1.1-0.5-1.1-1.1c0-0.6,0.5-1.1,1.1-1.1h39.8V-32h-6.9v-24.9c0-1.2-1-2.3-2.2-2.3h-15.6c-1.2,0-2.2,1-2.2,2.3V-32
						h-5v-8.5c0-0.6-0.5-1-1-1c-0.6,0-1,0.5-1,1v8.5h-5.8c-1.7,0-3.1,1.4-3.1,3.1c0,1.7,1.4,3.1,3.1,3.1h39.8V-27.8z"/>
				</g>
				<g id="Group-13" transform="translate(0.000000, 0.533154)">
					<g id="Clip-12">
					</g>
					<defs>
						<filter id="Adobe_OpacityMaskFilter_1_" filterUnits="userSpaceOnUse" x="-138.6" y="-59.5" width="71.8" height="45.8">
							<feColorMatrix  type="matrix" values="1 0 0 0 0  0 1 0 0 0  0 0 1 0 0  0 0 0 1 0"/>
						</filter>
					</defs>
					<mask maskUnits="userSpaceOnUse" x="-138.6" y="-59.5" width="71.8" height="45.8" id="mask-4">
						<g class="st3">
							<polygon id="path-3" class="st1" points="-138.6,-59.5 -66.8,-59.5 -66.8,-13.7 -138.6,-13.7 							"/>
						</g>
					</mask>
					<path id="Fill-11" class="st4" d="M-123.5-57.2h9.4v1.7h-0.6h-8.2h-0.6V-57.2z M-115.7-51.2l-6.1,4.1v-6.4h6.1V-51.2z
						 M-137-30.9c1.2,0.8,2.8,0.8,4,0l3.3-2.2v18.4c0,0.6,0.5,1,1,1c0.6,0,1-0.5,1-1v-19.8l25-16.8l14.9,10l10.1,6.8v14.7h2v-13.3
						l3.3,2.2c0.6,0.4,1.3,0.6,2,0.6c0.7,0,1.4-0.2,2-0.6c1-0.7,1.6-1.8,1.6-3s-0.6-2.3-1.6-3l-8.1-5.5c-0.5-0.3-1.1-0.2-1.4,0.3
						c-0.3,0.5-0.2,1.1,0.3,1.4l8.1,5.5c0.4,0.3,0.7,0.8,0.7,1.3c0,0.5-0.2,1-0.7,1.3c-0.5,0.3-1.2,0.3-1.7,0L-101.7-53
						c-0.6-0.4-1.4-0.4-2,0l-30.5,20.4c-0.5,0.3-1.2,0.3-1.7,0c-0.4-0.3-0.7-0.8-0.7-1.3c0-0.5,0.2-1,0.7-1.3l13.6-9.1v0l8.2-5.5
						c0,0,0,0,0,0l11.4-7.6l19.6,13.1c0.5,0.3,1.1,0.2,1.4-0.3c0.3-0.5,0.2-1.1-0.3-1.4l-19.7-13.2c-0.6-0.4-1.4-0.4-2,0l-10,6.7
						v-0.9h0.3c0.7,0,1.3-0.6,1.3-1.3v-3.1c0-0.7-0.6-1.3-1.3-1.3h-10.8c-0.7,0-1.3,0.6-1.3,1.3v3.1c0,0.7,0.6,1.3,1.3,1.3h0.3v7.8
						l-13.1,8.8c-1,0.7-1.6,1.8-1.6,3C-138.6-32.7-138-31.6-137-30.9L-137-30.9z"/>
				</g>
				<g id="Group-7" transform="translate(42.500000, 39.973154)">
					<path id="Fill-5" class="st5" d="M-104.5-31.4c0,0.6-0.5,1.2-1.2,1.2h-30c-0.6,0-1.2-0.5-1.2-1.2v-17.4c0-0.6,0.4-1.1,1-1.1
						l6.3-1.1l2.1-5.2c0.2-0.4,0.6-0.7,1.1-0.7h11.5c0.5,0,0.9,0.3,1.1,0.7l2.1,5.2l6.3,1.1c0.6,0.1,1,0.6,1,1.1V-31.4z M-105-52.3
						l-5-0.8l-1.6-4c-0.5-1.3-1.8-2.2-3.2-2.2h-11.5c-1.4,0-2.7,0.9-3.2,2.2l-1.6,4l-5,0.8c-1.7,0.3-2.9,1.7-2.9,3.4v17.4
						c0,1.9,1.6,3.5,3.5,3.5h30c1.9,0,3.5-1.6,3.5-3.5v-17.4C-102.2-50.5-103.4-52-105-52.3L-105-52.3z"/>
					<path id="Fill-1" class="st5" d="M-115.3-37.3c-2.5,2.9-6.8,3.3-9.7,0.8c-2.9-2.5-3.2-6.9-0.7-9.8c2.5-2.9,6.8-3.3,9.7-0.8
						C-113.2-44.7-112.9-40.3-115.3-37.3 M-120.6-51.2c-5.1,0-9.2,4.2-9.2,9.3c0,3.6,2.1,6.8,5.1,8.3c1.2,0.6,2.6,1,4.1,1
						c5.1,0,9.2-4.2,9.2-9.3S-115.5-51.2-120.6-51.2"/>
					<path id="Fill-3" class="st5" d="M-125.2-41.9c0,0.3,0.3,0.6,0.6,0.6c0.3,0,0.6-0.3,0.6-0.6c0-1.9,1.5-3.5,3.5-3.5
						c0.3,0,0.6-0.3,0.6-0.6c0-0.3-0.3-0.6-0.6-0.6C-123.1-46.5-125.2-44.4-125.2-41.9z"/>
				</g>
				<path id="Fill-1_1_" class="st6" d="M-108.1-13.7c-0.6,0-1.1,0.5-1.1,1.1v2.3c0,0.6,0.5,1.1,1.1,1.1c0.6,0,1.1-0.5,1.1-1.1v-2.3
					C-107-13.2-107.5-13.7-108.1-13.7"/>
			</g>
		</g>
	</g>
</g>
</svg>
